<?xml version="1.0" encoding="utf-8"?>
<!-- Generator: Adobe Illustrator 19.0.0, SVG Export Plug-In . SVG Version: 6.00 Build 0)  -->
<svg version="1.1" id="Layer_1" xmlns="http://www.w3.org/2000/svg" xmlns:xlink="http://www.w3.org/1999/xlink" x="0px" y="0px"
	 width="1024px" height="1024px" viewBox="0 0 1024 1024" style="enable-background:new 0 0 1024 1024;" xml:space="preserve">
<style type="text/css">
	.st0{clip-path:url(#SVGID_4_);fill:url(#SVGID_5_);}
	.st1{opacity:0.21;clip-path:url(#SVGID_7_);}
	.st2{clip-path:url(#SVGID_9_);}
	.st3{filter:url(#Adobe_OpacityMaskFilter);}
	.st4{clip-path:url(#SVGID_11_);fill:url(#SVGID_13_);}
	.st5{clip-path:url(#SVGID_11_);mask:url(#SVGID_12_);fill:url(#SVGID_14_);}
	.st6{clip-path:url(#SVGID_16_);fill:#CCCCCC;}
	.st7{clip-path:url(#SVGID_16_);}
	.st8{fill:#FFFFFF;}
	.st9{fill:#70CCE4;}
	.st10{clip-path:url(#SVGID_16_);fill:#70CCE4;}
	.st11{clip-path:url(#SVGID_16_);fill:#FFFFFF;}
	.st12{fill:none;}
</style>
<g>
	<defs>
		<rect id="SVGID_1_" width="1024" height="1024"/>
	</defs>
	<clipPath id="SVGID_2_">
		<use xlink:href="#SVGID_1_"  style="overflow:visible;"/>
	</clipPath>
</g>
<g>
	<defs>
		<path id="SVGID_3_" d="M225,0C100.7,0,0,100.7,0,225v574c0,124.3,100.7,225,225,225h574c124.3,0,225-100.7,225-225V225
			C1024,100.7,923.3,0,799,0H225z"/>
	</defs>
	<clipPath id="SVGID_4_">
		<use xlink:href="#SVGID_3_"  style="overflow:visible;"/>
	</clipPath>
	
		<linearGradient id="SVGID_5_" gradientUnits="userSpaceOnUse" x1="532.0701" y1="2089.2383" x2="533.0701" y2="2089.2383" gradientTransform="matrix(813.3241 936.7751 936.7751 -813.3241 -2389765.25 1200866.125)">
		<stop  offset="0" style="stop-color:#2F93CE"/>
		<stop  offset="0.2713" style="stop-color:#2F93CE"/>
		<stop  offset="1" style="stop-color:#2757AB"/>
	</linearGradient>
	<polygon class="st0" points="583.9,-506.9 1530.9,583.9 440.1,1530.9 -506.9,440.1 	"/>
</g>
<g>
	<defs>
		<path id="SVGID_6_" d="M225,0C100.7,0,0,100.7,0,225v574c0,124.3,100.7,225,225,225h574c124.3,0,225-100.7,225-225V225
			C1024,100.7,923.3,0,799,0H225z"/>
	</defs>
	<clipPath id="SVGID_7_">
		<use xlink:href="#SVGID_6_"  style="overflow:visible;"/>
	</clipPath>
	<g class="st1">
		<g>
			<defs>
				<rect id="SVGID_8_" x="210" y="192.2" width="834" height="880.5"/>
			</defs>
			<clipPath id="SVGID_9_">
				<use xlink:href="#SVGID_8_"  style="overflow:visible;"/>
			</clipPath>
			<g class="st2">
				<defs>
					<polygon id="SVGID_10_" points="230.5,787.7 515.6,1072.8 1044,1031.2 1034.6,442.9 807.6,215.9 649,192.2 623.9,192.2 
						623,612.2 210,606.5 210,644.5 					"/>
				</defs>
				<clipPath id="SVGID_11_">
					<use xlink:href="#SVGID_10_"  style="overflow:visible;"/>
				</clipPath>
				<defs>
					<filter id="Adobe_OpacityMaskFilter" filterUnits="userSpaceOnUse" x="-223.2" y="-218" width="1700.3" height="1701.1">
						<feColorMatrix  type="matrix" values="1 0 0 0 0  0 1 0 0 0  0 0 1 0 0  0 0 0 1 0"/>
					</filter>
				</defs>
				<mask maskUnits="userSpaceOnUse" x="-223.2" y="-218" width="1700.3" height="1701.1" id="SVGID_12_">
					<g class="st3">
						
							<linearGradient id="SVGID_13_" gradientUnits="userSpaceOnUse" x1="534.2266" y1="2088.7271" x2="535.2266" y2="2088.7271" gradientTransform="matrix(-605.5482 -725.4587 -725.4587 605.5482 1839711.125 -876274.875)">
							<stop  offset="0" style="stop-color:#000000"/>
							<stop  offset="3.743610e-002" style="stop-color:#000000"/>
							<stop  offset="1" style="stop-color:#FFFFFF"/>
						</linearGradient>
						<polygon class="st4" points="552.5,1483 -223.2,553.8 701.5,-218 1477.2,711.2 						"/>
					</g>
				</mask>
				
					<linearGradient id="SVGID_14_" gradientUnits="userSpaceOnUse" x1="534.2266" y1="2088.7271" x2="535.2266" y2="2088.7271" gradientTransform="matrix(-605.5482 -725.4588 -725.4588 605.5482 1839711.25 -876274.9375)">
					<stop  offset="0" style="stop-color:#000000"/>
					<stop  offset="3.743610e-002" style="stop-color:#000000"/>
					<stop  offset="1" style="stop-color:#000000"/>
				</linearGradient>
				<polygon class="st5" points="552.5,1483 -223.2,553.8 701.5,-218 1477.2,711.2 				"/>
			</g>
		</g>
	</g>
</g>
<g>
	<defs>
		<rect id="SVGID_15_" width="1024" height="1024"/>
	</defs>
	<clipPath id="SVGID_16_">
		<use xlink:href="#SVGID_15_"  style="overflow:visible;"/>
	</clipPath>
	<path class="st6" d="M498.4,461.3h-10.5c-29.1,13.4-62.7,13.4-91.8,0h-10.5c-46.7,0-84.6,37.9-84.6,84.6v46.2
		c0,16.7,13.5,10.2,30.2,10.2h221.6c16.7,0,30.2,6.5,30.2-10.2v-46.2C583,499.2,545.1,461.3,498.4,461.3"/>
	<g class="st7">
		<path class="st8" d="M759.9,802.9c33.4,0,60.7-27.3,60.7-60.7V638H655.8v164.9H759.9z"/>
		<path class="st8" d="M210,742.2c0,33.4,27.3,60.7,60.7,60.7h142.2V638H210V742.2z"/>
		<polygon class="st9" points="635.8,802.9 635.8,638 622.8,638 432.9,638 432.9,802.9 		"/>
		<path class="st9" d="M820.7,253c0-33.4-27.3-60.7-60.7-60.7H655.8v202.9h164.9V253z"/>
		<polygon class="st8" points="655.8,618 820.7,618 820.7,415.1 655.8,415.1 655.8,565.2 		"/>
		<path class="st8" d="M224.5,326.9c3.4-1.7,5.5-5.2,5.5-8.9v-63.9c0-10.6,3.7-20.9,10.9-28.6c0.4-0.4,0.7-0.8,1.1-1.2
			c7.7-7.7,17.9-12,28.8-12h345l0,385.8H230V482.2c0-7.4-7.8-12.3-14.5-8.9c-3.4,1.7-5.5,5.2-5.5,8.9V618h425.8l0-425.8h-365
			c-33.4,0-60.7,27.3-60.7,60.7v64.9C210,325.3,217.8,330.2,224.5,326.9z"/>
	</g>
	<path class="st10" d="M309,331.6c3,3.1,2.9,7.9-0.1,10.9l-91.9,91.2c-3,3-7.9,3-10.9,0c0,0,0,0,0,0L153,380.1c-3-3-3-7.9,0-10.9
		c0,0,0,0,0,0l18.3-18.1c3-3,7.9-3,10.9,0c0,0,0,0,0,0l29.6,29.8l68.2-67.6c3-3,7.9-3,10.9,0c0,0,0,0,0,0L309,331.6z"/>
	<path class="st11" d="M442,441.1c44.5,0,80.6-36.1,80.6-80.6S486.5,280,442,280c-44.5,0-80.6,36.1-80.6,80.6S397.5,441.1,442,441.1
		"/>
</g>
<rect class="st12" width="1024" height="1024"/>
</svg>
